<svg width="1200" height="500" viewBox="0 0 1200 500" fill="none" xmlns="http://www.w3.org/2000/svg">
<rect x="193" y="236.211" width="45" height="360" rx="5" transform="rotate(-45 193 236.211)" fill="white"/>
<rect x="196.536" y="236.211" width="40" height="85" rx="2.5" transform="rotate(-45 196.536 236.211)" fill="#181818" stroke="white" stroke-width="5"/>
<rect x="193" y="236.211" width="45" height="10" rx="5" transform="rotate(-45 193 236.211)" fill="white"/>
<path d="M184.049 284.927C184.348 284.006 185.652 284.006 185.951 284.927L190.164 297.893C190.298 298.305 190.682 298.584 191.115 298.584H204.748C205.716 298.584 206.119 299.823 205.335 300.393L194.306 308.406C193.956 308.66 193.809 309.112 193.943 309.524L198.156 322.489C198.455 323.411 197.401 324.177 196.617 323.607L185.588 315.594C185.237 315.34 184.763 315.34 184.412 315.594L173.383 323.607C172.599 324.177 171.545 323.411 171.844 322.489L176.057 309.524C176.191 309.112 176.044 308.66 175.694 308.406L164.665 300.393C163.881 299.823 164.284 298.584 165.252 298.584H178.885C179.318 298.584 179.702 298.305 179.836 297.893L184.049 284.927Z" fill="white" fill-opacity="0.3"/>
<path d="M159.098 177.854C159.697 176.011 162.303 176.011 162.902 177.854L167.735 192.729C168.003 193.554 168.771 194.111 169.638 194.111H185.278C187.216 194.111 188.021 196.591 186.454 197.729L173.8 206.923C173.099 207.432 172.806 208.335 173.074 209.159L177.907 224.034C178.506 225.877 176.397 227.409 174.829 226.271L162.176 217.077C161.475 216.568 160.525 216.568 159.824 217.077L147.171 226.271C145.603 227.409 143.494 225.877 144.093 224.034L148.926 209.159C149.194 208.335 148.901 207.432 148.2 206.923L135.546 197.729C133.979 196.591 134.784 194.111 136.722 194.111H152.362C153.229 194.111 153.997 193.554 154.265 192.729L159.098 177.854Z" fill="white" fill-opacity="0.6"/>
<path d="M282.098 122.854C282.697 121.011 285.303 121.011 285.902 122.854L294.328 148.785C294.595 149.609 295.363 150.167 296.23 150.167H323.495C325.433 150.167 326.238 152.646 324.671 153.785L302.613 169.812C301.912 170.321 301.618 171.224 301.886 172.048L310.312 197.979C310.91 199.821 308.801 201.354 307.234 200.215L285.176 184.188C284.475 183.679 283.525 183.679 282.824 184.188L260.766 200.215C259.199 201.354 257.09 199.821 257.688 197.979L266.114 172.048C266.382 171.224 266.088 170.321 265.387 169.812L243.329 153.785C241.762 152.646 242.567 150.167 244.505 150.167H271.77C272.637 150.167 273.405 149.609 273.672 148.785L282.098 122.854Z" fill="white" fill-opacity="0.8"/>
<path d="M67.0979 129.854C67.6966 128.011 70.3034 128.011 70.9021 129.854L79.3276 155.785C79.5954 156.609 80.3633 157.167 81.2298 157.167H108.495C110.433 157.167 111.238 159.646 109.671 160.785L87.6126 176.812C86.9116 177.321 86.6183 178.224 86.886 179.048L95.3116 204.979C95.9103 206.821 93.8013 208.354 92.2339 207.215L70.1756 191.188C69.4746 190.679 68.5254 190.679 67.8244 191.188L45.7661 207.215C44.1987 208.354 42.0897 206.821 42.6884 204.979L51.114 179.048C51.3817 178.224 51.0884 177.321 50.3874 176.812L28.3291 160.785C26.7617 159.646 27.5672 157.167 29.5047 157.167H56.7702C57.6367 157.167 58.4046 156.609 58.6724 155.785L67.0979 129.854Z" fill="white" fill-opacity="0.8"/>
<path d="M195.098 15.8541C195.697 14.0115 198.303 14.0115 198.902 15.8541L210.92 52.8409C211.188 53.665 211.956 54.2229 212.822 54.2229H251.712C253.65 54.2229 254.455 56.7021 252.888 57.8409L221.425 80.7001C220.724 81.2094 220.431 82.1121 220.698 82.9361L232.716 119.923C233.315 121.766 231.206 123.298 229.638 122.159L198.176 99.2999C197.475 98.7906 196.525 98.7906 195.824 99.2999L164.362 122.159C162.794 123.298 160.685 121.766 161.284 119.923L173.302 82.9361C173.569 82.1121 173.276 81.2094 172.575 80.7001L141.112 57.8409C139.545 56.7021 140.35 54.2229 142.288 54.2229H181.178C182.044 54.2229 182.812 53.665 183.08 52.8409L195.098 15.8541Z" fill="white"/>
<path d="M614.923 281.257C611.989 281.257 608.949 280.995 605.805 280.471C602.662 279.947 599.727 279.213 597.002 278.27C595.954 277.956 594.906 277.589 593.858 277.17C592.81 276.751 591.867 276.331 591.029 275.912L595.902 286.13L594.959 287.23H571.536L559.275 240.385L577.038 234.569L578.296 237.399C580.601 242.324 583.745 246.516 587.728 249.974C591.71 253.328 596.059 255.896 600.775 257.677C605.596 259.354 610.417 260.192 615.237 260.192C620.163 260.192 624.041 259.354 626.87 257.677C629.804 256 631.272 253.59 631.272 250.446C631.272 247.931 630.276 245.887 628.285 244.315C626.294 242.743 623.674 241.381 620.425 240.228C617.176 239.075 612.46 237.661 606.277 235.984C605.753 235.774 605.229 235.617 604.705 235.512C604.286 235.303 603.762 235.145 603.133 235.041C595.692 233.049 589.195 230.849 583.64 228.438C578.086 225.923 573.161 222.203 568.864 217.277C564.567 212.352 562.419 206.011 562.419 198.256C562.419 191.13 564.253 185.209 567.921 180.493C571.589 175.777 576.409 172.266 582.383 169.96C588.356 167.655 594.906 166.502 602.033 166.502C603.5 166.502 604.967 166.607 606.434 166.816C607.901 166.921 609.369 167.078 610.836 167.288C612.303 167.498 613.77 167.76 615.237 168.074C615.971 168.284 616.705 168.493 617.438 168.703C618.172 168.808 618.905 168.965 619.639 169.174L616.181 161.943L617.124 161H641.018L651.393 205.016L634.101 210.518L633.315 208.946C631.114 204.544 628.337 200.771 624.984 197.627C621.735 194.483 618.224 192.125 614.451 190.553C610.783 188.981 607.168 188.195 603.605 188.195C599.622 188.195 596.374 189.034 593.858 190.711C591.343 192.283 590.086 194.588 590.086 197.627C590.086 200.142 591.081 202.291 593.072 204.072C595.064 205.749 597.579 207.164 600.618 208.317C603.657 209.365 607.901 210.622 613.351 212.09L616.023 212.718L618.067 213.347C626.661 215.653 633.682 217.958 639.132 220.264C644.581 222.569 649.245 226.08 653.122 230.796C657.105 235.407 659.096 241.59 659.096 249.346C659.096 256.472 657.105 262.446 653.122 267.266C649.245 271.982 644.005 275.493 637.402 277.799C630.8 280.104 623.307 281.257 614.923 281.257Z" fill="white"/>
<path d="M715.781 285.344L719.553 276.855C719.029 277.275 718.401 277.641 717.667 277.956C717.038 278.27 716.305 278.532 715.466 278.742C713.894 279.266 712.217 279.685 710.436 279.999C708.759 280.314 707.03 280.471 705.248 280.471C697.912 280.471 691.258 278.847 685.284 275.598C679.311 272.244 674.595 267.528 671.136 261.45C667.678 255.372 665.949 248.35 665.949 240.385C665.949 232.211 667.73 224.98 671.293 218.692C674.961 212.299 679.939 207.374 686.227 203.915C692.62 200.457 699.746 198.728 707.606 198.728C715.571 198.728 722.645 200.457 728.828 203.915C735.011 207.374 739.832 212.194 743.29 218.377C746.749 224.456 748.478 231.477 748.478 239.442C748.478 240.595 748.426 241.8 748.321 243.058C748.321 244.21 748.216 245.363 748.006 246.516H688.9C689.528 249.555 690.681 252.228 692.358 254.533C694.035 256.734 696.183 258.463 698.803 259.721C701.528 260.978 704.672 261.607 708.235 261.607C711.065 261.607 713.685 261.136 716.095 260.192C718.61 259.144 720.706 257.834 722.383 256.262C724.06 254.69 725.37 253.014 726.313 251.232L726.627 250.446L746.277 255.476L737.631 286.13H716.567L715.781 285.344ZM724.741 231.897C723.903 228.962 722.697 226.499 721.125 224.508C719.553 222.412 717.562 220.788 715.152 219.635C712.741 218.482 709.964 217.906 706.82 217.906C703.676 217.906 700.899 218.482 698.489 219.635C696.183 220.788 694.192 222.412 692.515 224.508C690.943 226.499 689.79 228.962 689.057 231.897H724.741Z" fill="white"/>
<path d="M766.553 277.327C767.077 269.257 767.339 260.874 767.339 252.175V187.409C765.872 187.409 762.152 188.143 756.178 189.61L753.977 190.082L753.349 189.139L756.65 168.86H771.898C774.937 168.86 778.448 168.755 782.43 168.546C786.413 168.231 789.4 167.917 791.391 167.602L791.862 168.388C791.653 171.008 791.443 175.148 791.233 180.807C791.024 186.99 790.919 191.916 790.919 195.584V258.778C792.177 258.778 794.325 258.411 797.364 257.677C800.508 256.944 803.233 256.315 805.539 255.791L806.167 256.734L802.709 278.899H766.553V277.327Z" fill="white"/>
<path d="M821.358 277.327C821.882 269.257 822.144 260.874 822.144 252.175V187.409C820.677 187.409 816.956 188.143 810.983 189.61L808.782 190.082L808.153 189.139L811.454 168.86H826.703C829.742 168.86 833.253 168.755 837.235 168.546C841.217 168.231 844.204 167.917 846.195 167.602L846.667 168.388C846.457 171.008 846.248 175.148 846.038 180.807C845.828 186.99 845.724 191.916 845.724 195.584V258.778C846.981 258.778 849.13 258.411 852.169 257.677C855.313 256.944 858.038 256.315 860.343 255.791L860.972 256.734L857.514 278.899H821.358V277.327Z" fill="white"/>
<path d="M917.191 285.344L920.964 276.855C920.44 277.275 919.811 277.641 919.078 277.956C918.449 278.27 917.715 278.532 916.877 278.742C915.305 279.266 913.628 279.685 911.847 279.999C910.17 280.314 908.441 280.471 906.659 280.471C899.323 280.471 892.668 278.847 886.695 275.598C880.721 272.244 876.005 267.528 872.547 261.45C869.089 255.372 867.359 248.35 867.359 240.385C867.359 232.211 869.141 224.98 872.704 218.692C876.372 212.299 881.35 207.374 887.638 203.915C894.031 200.457 901.157 198.728 909.017 198.728C916.982 198.728 924.056 200.457 930.239 203.915C936.422 207.374 941.243 212.194 944.701 218.377C948.159 224.456 949.889 231.477 949.889 239.442C949.889 240.595 949.836 241.8 949.731 243.058C949.731 244.21 949.627 245.363 949.417 246.516H890.31C890.939 249.555 892.092 252.228 893.769 254.533C895.446 256.734 897.594 258.463 900.214 259.721C902.939 260.978 906.083 261.607 909.646 261.607C912.475 261.607 915.095 261.136 917.506 260.192C920.021 259.144 922.117 257.834 923.794 256.262C925.47 254.69 926.78 253.014 927.724 251.232L928.038 250.446L947.688 255.476L939.042 286.13H917.977L917.191 285.344ZM926.152 231.897C925.313 228.962 924.108 226.499 922.536 224.508C920.964 222.412 918.973 220.788 916.563 219.635C914.152 218.482 911.375 217.906 908.231 217.906C905.087 217.906 902.31 218.482 899.899 219.635C897.594 220.788 895.603 222.412 893.926 224.508C892.354 226.499 891.201 228.962 890.468 231.897H926.152Z" fill="white"/>
<path d="M1037.45 227.495L1017.95 234.097C1016.59 231.058 1015.18 228.595 1013.71 226.709C1012.24 224.718 1010.67 223.251 1008.99 222.307C1007.32 221.259 1005.43 220.735 1003.33 220.735C1001.34 220.735 999.613 221.259 998.146 222.307C996.679 223.251 995.579 224.613 994.845 226.395C994.111 228.176 993.745 230.272 993.745 232.683V260.35C995.421 260.35 998.251 260.035 1002.23 259.406C1006.32 258.778 1009.57 258.201 1011.98 257.677L1012.45 258.62L1009.31 278.899H969.222V277.327C969.746 269.257 970.008 260.874 970.008 252.175V218.849C968.54 218.849 964.82 219.583 958.846 221.05L956.646 221.521L956.174 220.578L959.318 200.3H971.422C974.357 200.3 977.815 200.195 981.797 199.985C985.885 199.671 988.871 199.356 990.758 199.042L991.229 199.828L991.072 202.029C990.967 202.867 990.915 203.653 990.915 204.387C990.915 205.12 990.863 205.854 990.758 206.588C992.12 204.282 994.164 202.396 996.889 200.928C999.718 199.461 1002.5 198.728 1005.22 198.728C1005.85 198.728 1006.43 198.78 1006.95 198.885C1007.47 198.99 1008 199.147 1008.52 199.356C1008.63 199.461 1008.78 199.618 1008.99 199.828C1009.2 199.933 1009.41 200.038 1009.62 200.142L1007.11 194.012L1007.89 193.226H1028.96L1037.45 227.495Z" fill="white"/>
<path d="M1095.84 230.01C1094.17 226.866 1092.17 224.246 1089.87 222.15C1087.56 219.949 1085.15 218.325 1082.64 217.277C1080.12 216.229 1077.5 215.705 1074.78 215.705C1071.32 215.705 1068.75 216.282 1067.08 217.434C1065.5 218.587 1064.72 220.054 1064.72 221.836C1064.72 223.513 1065.4 224.875 1066.76 225.923C1068.23 226.971 1069.96 227.809 1071.95 228.438C1074.04 229.067 1076.98 229.853 1080.75 230.796C1081.17 230.901 1081.54 231.006 1081.85 231.111C1082.27 231.111 1082.69 231.163 1083.11 231.268C1083.63 231.373 1084.11 231.53 1084.52 231.739C1085.05 231.844 1085.57 231.949 1086.1 232.054C1093.12 233.731 1098.62 235.407 1102.6 237.084C1106.69 238.656 1110.04 241.119 1112.66 244.472C1115.39 247.721 1116.75 252.07 1116.75 257.52C1116.75 265.38 1113.71 271.301 1107.63 275.283C1101.55 279.161 1094.01 281.1 1085 281.1C1081.85 281.1 1078.76 280.838 1075.72 280.314C1072.68 279.79 1070.06 279.213 1067.86 278.585C1067.34 278.375 1066.87 278.165 1066.45 277.956C1066.03 277.746 1065.66 277.537 1065.35 277.327L1068.49 285.344L1067.86 286.13H1047.27L1039.41 253.747L1056.7 249.031C1058.48 252.28 1060.63 255.057 1063.15 257.363C1065.66 259.564 1068.54 261.293 1071.79 262.55C1075.04 263.808 1078.66 264.437 1082.64 264.437C1086.2 264.437 1088.87 263.913 1090.66 262.865C1092.54 261.817 1093.48 260.402 1093.48 258.62C1093.48 256.944 1092.8 255.581 1091.44 254.533C1090.18 253.485 1088.24 252.594 1085.62 251.861C1083.11 251.022 1079.18 250.027 1073.83 248.874L1073.05 248.717C1067.39 247.459 1062.25 245.887 1057.64 244.001C1053.14 242.114 1049.31 239.39 1046.17 235.827C1043.13 232.263 1041.61 227.809 1041.61 222.465C1041.61 214.71 1044.6 208.841 1050.57 204.858C1056.54 200.771 1063.98 198.728 1072.89 198.728C1075.2 198.728 1077.29 198.832 1079.18 199.042C1081.07 199.252 1082.64 199.566 1083.9 199.985C1084.31 199.985 1084.68 200.09 1085 200.3C1085.31 200.404 1085.62 200.509 1085.94 200.614L1083.11 193.855L1083.9 193.069H1104.96L1113.29 225.137L1095.84 230.01Z" fill="white"/>
<path d="M1122.18 212.561C1124.06 210.884 1125.63 209.05 1126.89 207.059C1128.15 205.068 1129.2 202.815 1130.04 200.3C1129.93 200.3 1129.88 200.3 1129.88 200.3C1126 200.3 1122.65 198.78 1119.82 195.741C1116.99 192.702 1115.57 188.981 1115.57 184.58C1115.57 179.759 1117.2 175.672 1120.45 172.318C1123.7 168.965 1127.73 167.288 1132.55 167.288C1137.69 167.288 1141.88 168.912 1145.13 172.161C1148.38 175.41 1150 179.602 1150 184.737C1150 189.558 1148.64 194.85 1145.91 200.614C1143.29 206.378 1139.99 210.832 1136.01 213.976H1122.18V212.561Z" fill="white"/>
<path d="M568.864 409.551C566.768 403.053 564.462 396.503 561.947 389.901C559.432 383.194 556.969 376.906 554.559 371.037C553.825 369.046 553.092 367.107 552.358 365.221C551.52 363.229 550.734 361.343 550 359.561V357.989H583.012C584.269 363.439 585.841 369.675 587.728 376.696C589.719 383.613 592.129 391.63 594.959 400.748L604.862 433.602L618.696 389.272L608.006 359.561V357.989H653.751L655.952 378.111L655.323 378.897C654.38 378.897 653.332 378.845 652.179 378.74C651.131 378.53 650.083 378.373 649.035 378.268C647.044 378.059 645.262 377.954 643.69 377.954L662.554 434.231L670.414 407.507C671.357 404.573 672.196 401.743 672.929 399.018C673.768 396.189 674.554 393.412 675.287 390.687C675.916 388.591 676.492 386.495 677.016 384.399C677.645 382.303 678.274 380.154 678.903 377.954C678.064 377.954 677.069 378.006 675.916 378.111C674.868 378.216 673.82 378.321 672.772 378.425C671.305 378.74 669.785 378.897 668.213 378.897L667.585 377.954L669.785 357.989H713.329V359.561C710.5 365.849 707.461 373.447 704.212 382.355C700.963 391.263 697.295 401.848 693.208 414.109C692.684 415.262 692.212 416.415 691.793 417.568C691.479 418.721 691.164 419.821 690.85 420.869L674.973 468.029H648.092L631.272 418.354L615.395 468.029H588.514L568.864 409.551Z" fill="white"/>
<path d="M733.635 469.601C725.461 469.601 719.12 467.609 714.614 463.627C710.108 459.645 707.854 454.3 707.854 447.593C707.854 442.038 709.374 437.48 712.413 433.916C715.557 430.353 719.854 427.681 725.303 425.899C730.753 424.013 737.46 422.808 745.425 422.284C749.407 421.969 752.604 421.603 755.014 421.183C757.424 420.659 759.258 419.926 760.516 418.983C761.774 417.935 762.402 416.625 762.402 415.053C762.402 412.537 761.354 410.546 759.258 409.079C757.162 407.612 754.228 406.878 750.455 406.878C747.626 406.878 745.006 407.35 742.595 408.293C740.29 409.236 738.246 410.651 736.465 412.537C734.683 414.424 733.216 416.625 732.063 419.14L731.749 419.926L714.142 416.782L723.103 382.355H744.167L744.953 383.141L741.809 390.372C743.067 389.744 744.22 389.324 745.268 389.115C746.735 388.8 748.202 388.538 749.669 388.329C751.241 388.014 752.97 387.857 754.857 387.857C763.66 387.857 770.629 390.634 775.764 396.189C781.004 401.638 783.624 409.184 783.624 418.825V449.479C784.882 449.479 788.602 448.745 794.785 447.278C795.1 447.173 795.414 447.121 795.728 447.121C796.148 447.016 796.514 446.911 796.829 446.807L797.458 447.75L794.156 468.029H762.245V466.457C762.35 465.723 762.402 464.937 762.402 464.099C762.402 463.26 762.455 462.422 762.559 461.583C762.559 460.955 762.559 460.431 762.559 460.011C762.559 459.487 762.559 459.016 762.559 458.597C759.311 462.055 755.119 464.78 749.984 466.771C744.848 468.657 739.399 469.601 733.635 469.601ZM741.338 450.737C744.901 450.737 748.307 449.898 751.556 448.221C754.804 446.44 757.424 444.134 759.416 441.305C761.407 438.475 762.402 435.541 762.402 432.502V431.244C760.621 432.292 758.472 433.183 755.957 433.916C753.442 434.545 750.77 435.017 747.94 435.331C742.805 435.75 738.875 436.589 736.15 437.846C733.53 439.104 732.22 441.095 732.22 443.82C732.22 446.126 733.006 447.855 734.578 449.007C736.255 450.16 738.508 450.737 741.338 450.737Z" fill="white"/>
<path d="M903.973 447.75L900.829 468.029H865.459V466.457C865.983 459.121 866.245 450.737 866.245 441.305V425.27C866.245 420.555 864.883 416.729 862.158 413.795C859.434 410.861 855.923 409.393 851.626 409.393C848.796 409.393 846.281 410.075 844.08 411.437C841.88 412.799 840.151 414.738 838.893 417.253C837.635 419.664 837.007 422.336 837.007 425.27V441.305C837.007 450.003 837.216 458.387 837.635 466.457V468.029H812.484V466.457C813.008 458.387 813.27 450.003 813.27 441.305V407.979C811.802 407.979 808.082 408.712 802.108 410.179L799.908 410.651L799.436 409.708L802.58 389.429H814.684C817.619 389.429 821.077 389.324 825.059 389.115C829.042 388.8 832.029 388.486 834.02 388.172L834.491 388.958C834.387 390.32 834.282 391.735 834.177 393.202C834.072 394.669 833.967 396.136 833.863 397.604C836.692 394.46 840.098 392.049 844.08 390.372C848.063 388.696 852.412 387.857 857.128 387.857C863.73 387.857 869.494 389.324 874.42 392.259C879.45 395.193 883.328 399.333 886.052 404.677C888.777 409.917 890.14 415.943 890.14 422.755V449.479C891.397 449.479 895.118 448.745 901.301 447.278C901.72 447.173 902.087 447.121 902.401 447.121C902.716 447.016 903.03 446.911 903.344 446.807L903.973 447.75Z" fill="white"/>
<path d="M947.307 469.601C940.076 469.601 933.578 467.871 927.815 464.413C922.051 460.85 917.544 455.977 914.295 449.793C911.047 443.506 909.422 436.484 909.422 428.729C909.422 420.869 910.994 413.847 914.138 407.664C917.387 401.376 921.893 396.503 927.657 393.045C933.421 389.586 939.971 387.857 947.307 387.857C951.289 387.857 955.01 388.434 958.468 389.586C961.927 390.739 965.018 392.468 967.743 394.774V376.539C966.171 376.539 962.346 377.273 956.267 378.74C955.219 378.845 954.433 379.002 953.909 379.211L953.281 378.268L956.739 357.989H972.302C975.446 357.989 978.956 357.885 982.834 357.675C986.816 357.361 989.803 357.046 991.794 356.732L992.266 357.518C992.056 359.299 991.899 361.238 991.794 363.334C991.794 365.43 991.742 367.631 991.637 369.937C991.532 372.242 991.428 374.653 991.323 377.168C991.323 379.683 991.323 382.198 991.323 384.713V449.479C992.685 449.479 996.353 448.745 1002.33 447.278C1002.75 447.173 1003.17 447.121 1003.58 447.121C1004 447.016 1004.37 446.911 1004.68 446.807L1005.31 447.75L1002.01 468.029H970.101V466.457C970.206 466.037 970.258 465.618 970.258 465.199C970.258 464.675 970.311 464.151 970.415 463.627C970.415 463.103 970.415 462.631 970.415 462.212C970.415 461.688 970.468 461.217 970.573 460.797C967.533 463.627 964.023 465.828 960.04 467.4C956.058 468.867 951.813 469.601 947.307 469.601ZM951.394 449.322C954.643 449.322 957.577 448.431 960.197 446.65C962.922 444.868 965.071 442.405 966.643 439.261C968.215 436.117 969.001 432.606 969.001 428.729C969.001 424.851 968.215 421.341 966.643 418.197C965.071 415.053 962.922 412.59 960.197 410.808C957.577 409.027 954.643 408.136 951.394 408.136C948.041 408.136 945.002 409.027 942.277 410.808C939.657 412.59 937.561 415.053 935.989 418.197C934.522 421.341 933.788 424.851 933.788 428.729C933.788 432.606 934.522 436.117 935.989 439.261C937.561 442.405 939.657 444.868 942.277 446.65C945.002 448.431 948.041 449.322 951.394 449.322Z" fill="white"/>
</svg>
