<svg width="500" height="500" viewBox="0 0 500 500" fill="none" xmlns="http://www.w3.org/2000/svg">
<rect x="193" y="236.211" width="45" height="360" rx="5" transform="rotate(-45 193 236.211)" fill="white"/>
<rect x="196.536" y="236.211" width="40" height="85" rx="2.5" transform="rotate(-45 196.536 236.211)" fill="#181818" stroke="white" stroke-width="5"/>
<rect x="193" y="236.211" width="45" height="10" rx="5" transform="rotate(-45 193 236.211)" fill="white"/>
<path d="M184.049 284.927C184.348 284.006 185.652 284.006 185.951 284.927L190.164 297.893C190.298 298.305 190.682 298.584 191.115 298.584H204.748C205.716 298.584 206.119 299.823 205.335 300.393L194.306 308.406C193.956 308.66 193.809 309.112 193.943 309.524L198.156 322.489C198.455 323.411 197.401 324.177 196.617 323.607L185.588 315.594C185.237 315.34 184.763 315.34 184.412 315.594L173.383 323.607C172.599 324.177 171.545 323.411 171.844 322.489L176.057 309.524C176.191 309.112 176.044 308.66 175.694 308.406L164.665 300.393C163.881 299.823 164.284 298.584 165.252 298.584H178.885C179.318 298.584 179.702 298.305 179.836 297.893L184.049 284.927Z" fill="white" fill-opacity="0.3"/>
<path d="M159.098 177.854C159.697 176.011 162.303 176.011 162.902 177.854L167.735 192.729C168.003 193.554 168.771 194.111 169.638 194.111H185.278C187.216 194.111 188.021 196.591 186.454 197.729L173.8 206.923C173.099 207.432 172.806 208.335 173.074 209.159L177.907 224.034C178.506 225.877 176.397 227.409 174.829 226.271L162.176 217.077C161.475 216.568 160.525 216.568 159.824 217.077L147.171 226.271C145.603 227.409 143.494 225.877 144.093 224.034L148.926 209.159C149.194 208.335 148.901 207.432 148.2 206.923L135.546 197.729C133.979 196.591 134.784 194.111 136.722 194.111H152.362C153.229 194.111 153.997 193.554 154.265 192.729L159.098 177.854Z" fill="white" fill-opacity="0.6"/>
<path d="M282.098 122.854C282.697 121.011 285.303 121.011 285.902 122.854L294.328 148.785C294.595 149.609 295.363 150.167 296.23 150.167H323.495C325.433 150.167 326.238 152.646 324.671 153.785L302.613 169.812C301.912 170.321 301.618 171.224 301.886 172.048L310.312 197.979C310.91 199.821 308.801 201.354 307.234 200.215L285.176 184.188C284.475 183.679 283.525 183.679 282.824 184.188L260.766 200.215C259.199 201.354 257.09 199.821 257.688 197.979L266.114 172.048C266.382 171.224 266.088 170.321 265.387 169.812L243.329 153.785C241.762 152.646 242.567 150.167 244.505 150.167H271.77C272.637 150.167 273.405 149.609 273.672 148.785L282.098 122.854Z" fill="white" fill-opacity="0.8"/>
<path d="M67.0979 129.854C67.6966 128.011 70.3034 128.011 70.9021 129.854L79.3276 155.785C79.5954 156.609 80.3633 157.167 81.2298 157.167H108.495C110.433 157.167 111.238 159.646 109.671 160.785L87.6126 176.812C86.9116 177.321 86.6183 178.224 86.886 179.048L95.3116 204.979C95.9103 206.821 93.8013 208.354 92.2339 207.215L70.1756 191.188C69.4746 190.679 68.5254 190.679 67.8244 191.188L45.7661 207.215C44.1987 208.354 42.0897 206.821 42.6884 204.979L51.114 179.048C51.3817 178.224 51.0884 177.321 50.3874 176.812L28.3291 160.785C26.7617 159.646 27.5672 157.167 29.5047 157.167H56.7702C57.6367 157.167 58.4046 156.609 58.6724 155.785L67.0979 129.854Z" fill="white" fill-opacity="0.8"/>
<path d="M195.098 15.8541C195.697 14.0115 198.303 14.0115 198.902 15.8541L210.92 52.8409C211.188 53.665 211.956 54.2229 212.822 54.2229H251.712C253.65 54.2229 254.455 56.7021 252.888 57.8409L221.425 80.7001C220.724 81.2094 220.431 82.1121 220.698 82.9361L232.716 119.923C233.315 121.766 231.206 123.298 229.638 122.159L198.176 99.2999C197.475 98.7906 196.525 98.7906 195.824 99.2999L164.362 122.159C162.794 123.298 160.685 121.766 161.284 119.923L173.302 82.9361C173.569 82.1121 173.276 81.2094 172.575 80.7001L141.112 57.8409C139.545 56.7021 140.35 54.2229 142.288 54.2229H181.178C182.044 54.2229 182.812 53.665 183.08 52.8409L195.098 15.8541Z" fill="white"/>
</svg>
